<svg width="24px" height="24px" viewBox="0 0 24 24" version="1.1" xmlns="http://www.w3.org/2000/svg" xmlns:xlink="http://www.w3.org/1999/xlink">
    <defs>
        <filter x="-1.9%" y="-6.2%" width="103.7%" height="107.6%" filterUnits="objectBoundingBox" id="filter-1">
            <feOffset dx="0" dy="2" in="SourceAlpha" result="shadowOffsetOuter1"></feOffset>
            <feGaussianBlur stdDeviation="2" in="shadowOffsetOuter1" result="shadowBlurOuter1"></feGaussianBlur>
            <feColorMatrix values="0 0 0 0 0   0 0 0 0 0   0 0 0 0 0  0 0 0 0.5 0" type="matrix" in="shadowBlurOuter1" result="shadowMatrixOuter1"></feColorMatrix>
            <feMerge>
                <feMergeNode in="shadowMatrixOuter1"></feMergeNode>
                <feMergeNode in="SourceGraphic"></feMergeNode>
            </feMerge>
        </filter>
    </defs>
    <g id="Page-1" stroke="none" stroke-width="1" fill="none" fill-rule="evenodd">
        <g id="2" transform="translate(-1525.000000, -367.000000)" fill="#F6EDED">
            <g id="Content" transform="translate(238.000000, 292.000000)">
                <g id="Video" filter="url(#filter-1)" transform="translate(950.000000, 94.000000)">
                    <path d="M357,-2 L357,-1.3359375 C357,-1.24218703 356.967448,-1.16276074 356.902344,-1.09765625 C356.837239,-1.03255176 356.757813,-1 356.664062,-1 L341.335938,-1 C341.242187,-1 341.162761,-1.03255176 341.097656,-1.09765625 C341.032552,-1.16276074 341,-1.24218703 341,-1.3359375 L341,-2 C341,-2.45312727 341.110676,-2.85416492 341.332031,-3.203125 C341.553387,-3.55208508 341.839842,-3.83593641 342.191406,-4.0546875 C342.542971,-4.27343859 342.93229,-4.47265535 343.359375,-4.65234375 C343.78646,-4.83203215 344.21354,-5.00390543 344.640625,-5.16796875 C345.06771,-5.33203207 345.457029,-5.50520742 345.808594,-5.6875 C346.160158,-5.86979258 346.446613,-6.10025902 346.667969,-6.37890625 C346.889324,-6.65755348 347,-6.9765607 347,-7.3359375 C346.947916,-7.38802109 346.876303,-7.46744738 346.785156,-7.57421875 C346.69401,-7.68099012 346.533855,-7.91536277 346.304688,-8.27734375 C346.07552,-8.63932473 345.872397,-9.0221334 345.695312,-9.42578125 C345.518228,-9.8294291 345.358074,-10.3554655 345.214844,-11.0039062 C345.071614,-11.652347 345,-12.3177049 345,-13 C345,-13.5416694 345.105468,-14.0585913 345.316406,-14.5507812 C345.527345,-15.0429712 345.812498,-15.4687482 346.171875,-15.828125 C346.531252,-16.1875018 346.957029,-16.4726552 347.449219,-16.6835938 C347.941409,-16.8945323 348.458331,-17 349,-17 C349.541669,-17 350.058591,-16.8945323 350.550781,-16.6835938 C351.042971,-16.4726552 351.468748,-16.1875018 351.828125,-15.828125 C352.187502,-15.4687482 352.472655,-15.0429712 352.683594,-14.5507812 C352.894532,-14.0585913 353,-13.5416694 353,-13 C353,-12.4999975 352.963542,-12.0117211 352.890625,-11.5351562 C352.817708,-11.0585914 352.722657,-10.6380227 352.605469,-10.2734375 C352.488281,-9.90885234 352.358074,-9.56380371 352.214844,-9.23828125 C352.071614,-8.91275879 351.928386,-8.63671988 351.785156,-8.41015625 C351.641926,-8.18359262 351.511719,-7.98698 351.394531,-7.8203125 C351.277343,-7.653645 351.182292,-7.53125039 351.109375,-7.453125 L351,-7.3359375 C351,-6.9765607 351.110676,-6.65755348 351.332031,-6.37890625 C351.553387,-6.10025902 351.839842,-5.86979258 352.191406,-5.6875 C352.542971,-5.50520742 352.93229,-5.33203207 353.359375,-5.16796875 C353.78646,-5.00390543 354.21354,-4.83203215 354.640625,-4.65234375 C355.06771,-4.47265535 355.457029,-4.27343859 355.808594,-4.0546875 C356.160158,-3.83593641 356.446613,-3.55208508 356.667969,-3.203125 C356.889324,-2.85416492 357,-2.45312727 357,-2 Z" id="user"></path>
                </g>
            </g>
        </g>
    </g>
</svg>
